<?xml version="1.0" encoding="UTF-8"?>
<svg xmlns="http://www.w3.org/2000/svg" xmlns:xlink="http://www.w3.org/1999/xlink" width="150px" height="150px" viewBox="0 0 150 150" version="1.1">
<g id="surface1">
<path style=" stroke:none;fill-rule:nonzero;fill:rgb(0%,0%,0%);fill-opacity:1;" d="M 99.886719 35.707031 C 99.929688 35.523438 100 35.195312 100 35 L 100 20 C 100 18.617188 98.878906 17.5 97.5 17.5 C 96.117188 17.5 95 18.617188 95 20 L 95 31.242188 C 89.484375 27.261719 82.742188 25 75.449219 25 C 75.375 25 75.300781 25 75.230469 25 C 69.734375 25 64.566406 26.3125 60 28.699219 L 60 17.5 C 60 16.117188 58.878906 15 57.5 15 C 56.117188 15 55 16.117188 55 17.5 L 55 31.914062 C 47.019531 38.09375 41.875 48.0625 41.945312 58.910156 C 42.0625 77.308594 57.070312 92.5 75.441406 92.5 C 75.515625 92.5 75.589844 92.5 75.660156 92.5 C 94.132812 92.5 109.0625 76.949219 108.941406 58.476562 C 108.886719 49.726562 105.4375 41.644531 99.886719 35.707031 Z M 75.625 87.5 C 75.5625 87.5 75.503906 87.5 75.441406 87.5 C 59.8125 87.5 47.046875 74.585938 46.945312 58.933594 C 46.84375 43.21875 59.550781 30 75.261719 30 C 75.324219 30 75.382812 30 75.445312 30 C 91.074219 30 103.839844 42.914062 103.941406 58.566406 C 104.042969 74.28125 91.339844 87.5 75.625 87.5 Z M 75.625 87.5 "/>
<path style=" stroke:none;fill-rule:nonzero;fill:rgb(0%,0%,0%);fill-opacity:1;" d="M 57.5 0 C 56.117188 0 55 1.117188 55 2.5 L 55 7.5 C 55 8.882812 56.117188 10 57.5 10 C 58.878906 10 60 8.882812 60 7.5 L 60 2.5 C 60 1.117188 58.878906 0 57.5 0 Z M 57.5 0 "/>
<path style=" stroke:none;fill-rule:nonzero;fill:rgb(0%,0%,0%);fill-opacity:1;" d="M 97.5 2.5 C 96.117188 2.5 95 3.617188 95 5 L 95 10 C 95 11.382812 96.117188 12.5 97.5 12.5 C 98.878906 12.5 100 11.382812 100 10 L 100 5 C 100 3.617188 98.878906 2.5 97.5 2.5 Z M 97.5 2.5 "/>
<path style=" stroke:none;fill-rule:nonzero;fill:rgb(0%,0%,0%);fill-opacity:1;" d="M 30 57.5 C 28.621094 57.5 27.5 58.617188 27.5 60 L 27.5 80 C 27.5 81.382812 28.621094 82.5 30 82.5 C 31.378906 82.5 32.5 81.382812 32.5 80 L 32.5 60 C 32.5 58.617188 31.378906 57.5 30 57.5 Z M 30 57.5 "/>
<path style=" stroke:none;fill-rule:nonzero;fill:rgb(0%,0%,0%);fill-opacity:1;" d="M 30 42.5 C 28.621094 42.5 27.5 43.617188 27.5 45 L 27.5 50 C 27.5 51.382812 28.621094 52.5 30 52.5 C 31.378906 52.5 32.5 51.382812 32.5 50 L 32.5 45 C 32.5 43.617188 31.378906 42.5 30 42.5 Z M 30 42.5 "/>
<path style=" stroke:none;fill-rule:nonzero;fill:rgb(0%,0%,0%);fill-opacity:1;" d="M 124.996094 35 C 123.617188 35 122.496094 36.117188 122.496094 37.5 L 122.496094 57.5 C 122.496094 58.882812 123.617188 60 124.996094 60 C 126.378906 60 127.496094 58.882812 127.496094 57.5 L 127.496094 37.5 C 127.496094 36.117188 126.378906 35 124.996094 35 Z M 124.996094 35 "/>
<path style=" stroke:none;fill-rule:nonzero;fill:rgb(0%,0%,0%);fill-opacity:1;" d="M 124.996094 20 C 123.617188 20 122.496094 21.117188 122.496094 22.5 L 122.496094 27.5 C 122.496094 28.882812 123.617188 30 124.996094 30 C 126.378906 30 127.496094 28.882812 127.496094 27.5 L 127.496094 22.5 C 127.496094 21.117188 126.378906 20 124.996094 20 Z M 124.996094 20 "/>
<path style=" stroke:none;fill-rule:nonzero;fill:rgb(0%,0%,0%);fill-opacity:1;" d="M 84.964844 64.886719 L 84.949219 62.390625 C 84.9375 60.386719 84.144531 58.507812 82.71875 57.101562 C 81.292969 55.695312 79.328125 54.886719 77.402344 54.953125 L 72.402344 55 C 72.394531 55 72.390625 55 72.386719 55 C 71.015625 55 69.894531 53.871094 69.886719 52.5 L 69.871094 49.996094 C 69.863281 48.617188 70.976562 47.484375 72.355469 47.476562 L 74.796875 47.457031 C 74.875 47.464844 74.945312 47.5 75.03125 47.5 C 75.035156 47.5 75.042969 47.5 75.046875 47.5 C 75.132812 47.5 75.203125 47.457031 75.285156 47.449219 L 82.351562 47.40625 C 83.734375 47.394531 84.847656 46.316406 84.835938 44.9375 C 84.824219 43.558594 83.710938 42.5 82.335938 42.5 C 82.332031 42.5 82.324219 42.5 82.320312 42.5 L 77.515625 42.484375 L 77.5 40.007812 C 77.492188 38.632812 76.371094 37.5 75 37.5 C 74.992188 37.5 74.988281 37.5 74.984375 37.5 C 73.605469 37.511719 72.492188 38.652344 72.5 40.03125 L 72.515625 42.5 L 72.324219 42.5 C 68.1875 42.5 64.847656 45.894531 64.871094 50.03125 L 64.886719 52.539062 C 64.914062 56.660156 68.273438 60 72.390625 60 C 72.402344 60 72.421875 60 72.4375 60 L 77.4375 60 C 77.441406 60 77.445312 60 77.453125 60 C 78.109375 60 78.734375 60.226562 79.207031 60.6875 C 79.679688 61.15625 79.945312 61.769531 79.949219 62.4375 L 79.96875 64.925781 C 79.980469 66.308594 78.863281 67.433594 77.484375 67.441406 L 67.484375 67.503906 C 66.105469 67.511719 64.992188 68.636719 65 70.019531 C 65.007812 71.390625 66.125 72.5 67.5 72.5 C 67.503906 72.5 67.507812 72.5 67.515625 72.5 L 72.515625 72.46875 L 72.527344 75.015625 C 72.535156 76.390625 73.65625 77.5 75.027344 77.5 C 75.035156 77.5 75.039062 77.5 75.042969 77.5 C 76.421875 77.488281 77.539062 76.363281 77.527344 74.984375 L 77.515625 72.433594 C 81.648438 72.40625 84.992188 69.023438 84.964844 64.886719 Z M 84.964844 64.886719 "/>
<path style=" stroke:none;fill-rule:nonzero;fill:rgb(0%,0%,0%);fill-opacity:1;" d="M 60 60 C 60 61.382812 58.878906 62.5 57.5 62.5 C 56.117188 62.5 55 61.382812 55 60 C 55 58.621094 56.117188 57.5 57.5 57.5 C 58.878906 57.5 60 58.621094 60 60 Z M 60 60 "/>
<path style=" stroke:none;fill-rule:nonzero;fill:rgb(0%,0%,0%);fill-opacity:1;" d="M 95 60 C 95 61.382812 93.878906 62.5 92.5 62.5 C 91.117188 62.5 90 61.382812 90 60 C 90 58.621094 91.117188 57.5 92.5 57.5 C 93.878906 57.5 95 58.621094 95 60 Z M 95 60 "/>
<path style=" stroke:none;fill-rule:nonzero;fill:rgb(0%,0%,0%);fill-opacity:1;" d="M 147.496094 97.5 L 119.996094 97.5 C 116.742188 97.5 113.992188 99.597656 112.957031 102.5 L 100.441406 102.5 C 99.089844 102.5 98.003906 103.578125 97.957031 104.917969 L 77.101562 100.1875 C 75.597656 99.847656 74.035156 99.964844 72.597656 100.535156 L 53.023438 108.300781 C 50.496094 109.304688 48.640625 111.339844 47.878906 113.800781 L 9.652344 102.585938 C 7.324219 101.910156 4.878906 102.34375 2.949219 103.785156 C 1.074219 105.191406 0 107.320312 0 109.632812 L 0 115.058594 C 0 117.535156 1.261719 119.832031 3.367188 121.195312 L 31.140625 139.167969 C 31.382812 139.324219 31.65625 139.4375 31.941406 139.503906 L 73.292969 148.945312 C 73.851562 149.078125 74.425781 149.140625 75 149.140625 C 75.574219 149.140625 76.144531 149.078125 76.707031 148.945312 L 98.46875 143.953125 C 98.921875 144.570312 99.617188 145 100.445312 145 L 112.960938 145 C 113.996094 147.902344 116.746094 150 120 150 L 147.5 150 C 148.882812 150 150 148.882812 150 147.5 L 150 100 C 149.996094 98.617188 148.878906 97.5 147.496094 97.5 Z M 97.339844 139.082031 L 75.585938 144.074219 C 75.203125 144.164062 74.796875 144.164062 74.410156 144.074219 L 33.488281 134.730469 L 6.082031 116.996094 C 5.40625 116.554688 5 115.832031 5 115.054688 L 5 109.632812 C 5 108.640625 5.589844 108.054688 5.941406 107.792969 C 6.601562 107.300781 7.4375 107.144531 8.242188 107.386719 L 47.933594 119.042969 C 49.097656 122.488281 52.429688 125 56.347656 125 L 75 125 C 76.378906 125 77.5 123.882812 77.5 122.5 C 77.5 121.117188 76.378906 120 75 120 L 56.347656 120 C 54.226562 120 52.5 118.355469 52.5 116.347656 C 52.5 114.863281 53.429688 113.53125 54.867188 112.960938 L 74.445312 105.191406 C 74.9375 104.992188 75.480469 104.949219 76 105.066406 L 97.488281 109.941406 Z M 112.5 140 L 102.5 140 L 102.5 107.5 L 112.5 107.5 Z M 144.996094 145 L 119.996094 145 C 118.617188 145 117.496094 143.878906 117.496094 142.5 L 117.496094 105 C 117.496094 103.621094 118.617188 102.5 119.996094 102.5 L 144.996094 102.5 Z M 144.996094 145 "/>
<path style=" stroke:none;fill-rule:nonzero;fill:rgb(0%,0%,0%);fill-opacity:1;" d="M 135.445312 135 L 127.945312 135 C 126.5625 135 125.445312 136.117188 125.445312 137.5 C 125.445312 138.882812 126.5625 140 127.945312 140 L 135.445312 140 C 136.828125 140 137.945312 138.882812 137.945312 137.5 C 137.945312 136.117188 136.828125 135 135.445312 135 Z M 135.445312 135 "/>
</g>
</svg>
