<?xml version="1.0" encoding="UTF-8"?>
<svg xmlns="http://www.w3.org/2000/svg" xmlns:xlink="http://www.w3.org/1999/xlink" width="150px" height="150px" viewBox="0 0 150 150" version="1.1">
<g id="surface1">
<path style=" stroke:none;fill-rule:nonzero;fill:rgb(0%,0%,0%);fill-opacity:1;" d="M 87.570312 7.121094 C 83.203125 7.210938 80.066406 8.058594 77.988281 9.582031 L 49.480469 24.847656 L 33.632812 46.40625 C 30.292969 51.5625 32.664062 61.523438 43.09375 55.136719 L 54.519531 40.078125 C 69.023438 27.570312 98.613281 33.3125 84.578125 58.417969 C 77.695312 72.949219 80.917969 80.039062 89.792969 83.027344 L 93.835938 69.433594 C 100.839844 53.671875 113.90625 50.828125 113.378906 38.113281 L 144.785156 40.371094 L 144.492188 7.53125 L 87.566406 7.121094 Z M 71.71875 37.414062 C 66.621094 37.324219 61.609375 39.433594 57.976562 42.480469 L 46.523438 57.539062 C 49.65625 60.03125 52.820312 58.679688 55.957031 55.664062 C 59.648438 57.539062 62.519531 54.640625 64.863281 48.835938 C 65.828125 44.882812 67.265625 42.101562 71.71875 37.414062 Z M 48.398438 65.539062 C 48.28125 65.539062 48.132812 65.539062 48.015625 65.566406 C 47.050781 65.769531 45.910156 66.796875 45.148438 69.140625 C 44.355469 71.484375 44.179688 74.824219 44.882812 78.398438 C 45.585938 81.945312 47.050781 84.960938 48.691406 86.835938 C 50.273438 88.679688 51.738281 89.210938 52.703125 89.003906 C 53.699219 88.828125 54.8125 87.773438 55.578125 85.457031 C 56.367188 83.113281 56.570312 79.746094 55.867188 76.199219 C 55.136719 72.625 53.671875 69.609375 52.0625 67.761719 C 50.652344 66.121094 49.367188 65.535156 48.398438 65.535156 Z M 72.597656 96.828125 C 70.28125 96.855469 67.382812 97.585938 64.539062 98.964844 C 61.289062 100.578125 58.742188 102.804688 57.363281 104.855469 C 55.988281 106.875 55.871094 108.398438 56.308594 109.304688 C 56.75 110.1875 58.039062 111.035156 60.5 111.152344 C 62.960938 111.300781 66.269531 110.625 69.523438 109.015625 C 72.773438 107.402344 75.320312 105.203125 76.699219 103.15625 C 78.078125 101.132812 78.195312 99.582031 77.753906 98.703125 C 77.316406 97.792969 76.027344 96.972656 73.566406 96.855469 C 73.242188 96.828125 72.949219 96.828125 72.597656 96.828125 Z M 44.003906 124.835938 C 42.628906 124.863281 41.367188 125.070312 40.253906 125.390625 C 37.765625 126.125 36.328125 127.441406 35.859375 128.992188 C 35.359375 130.578125 35.859375 132.453125 37.53125 134.472656 C 39.226562 136.464844 42.070312 138.367188 45.585938 139.421875 C 49.070312 140.476562 52.46875 140.449219 54.992188 139.6875 C 57.507812 138.953125 58.945312 137.636719 59.414062 136.082031 C 59.882812 134.5 59.414062 132.625 57.714844 130.605469 C 56.042969 128.613281 53.203125 126.707031 49.6875 125.65625 C 47.695312 125.070312 45.761719 124.804688 44.003906 124.832031 Z M 44.003906 124.835938 "/>
</g>
</svg>
