<?xml version="1.0" encoding="UTF-8"?>
<svg xmlns="http://www.w3.org/2000/svg" xmlns:xlink="http://www.w3.org/1999/xlink" width="150px" height="150px" viewBox="0 0 150 150" version="1.1">
<g id="surface1">
<path style=" stroke:none;fill-rule:nonzero;fill:rgb(0%,0%,0%);fill-opacity:1;" d="M 107.8125 121.875 C 105.222656 121.875 103.125 123.972656 103.125 126.5625 L 103.125 140.625 L 9.375 140.625 L 9.375 28.125 L 28.125 28.125 L 28.125 32.8125 C 28.125 35.402344 30.222656 37.5 32.8125 37.5 L 79.6875 37.5 C 82.277344 37.5 84.375 35.402344 84.375 32.8125 L 84.375 28.125 L 103.125 28.125 L 103.125 32.8125 C 103.125 35.402344 105.222656 37.5 107.8125 37.5 C 110.402344 37.5 112.5 35.402344 112.5 32.8125 L 112.5 23.4375 C 112.5 20.847656 110.402344 18.75 107.8125 18.75 L 84.375 18.75 L 84.375 14.0625 C 84.375 6.296875 78.078125 0 70.3125 0 L 42.1875 0 C 34.421875 0 28.125 6.296875 28.125 14.0625 L 28.125 18.75 L 4.6875 18.75 C 2.097656 18.75 0 20.847656 0 23.4375 L 0 145.3125 C 0 147.902344 2.097656 150 4.6875 150 L 107.8125 150 C 110.402344 150 112.5 147.902344 112.5 145.3125 L 112.5 126.5625 C 112.5 123.972656 110.402344 121.875 107.8125 121.875 Z M 37.5 14.0625 C 37.5 11.472656 39.597656 9.375 42.1875 9.375 L 70.3125 9.375 C 72.902344 9.375 75 11.472656 75 14.0625 L 75 28.125 L 37.5 28.125 Z M 148.632812 57.617188 L 129.882812 38.867188 C 129 37.988281 127.808594 37.492188 126.5625 37.492188 C 125.316406 37.492188 124.125 37.988281 123.242188 38.867188 L 66.992188 95.117188 C 66.113281 96 65.621094 97.195312 65.625 98.4375 L 65.625 117.1875 C 65.625 119.777344 67.722656 121.875 70.3125 121.875 L 89.0625 121.875 C 90.304688 121.878906 91.5 121.386719 92.382812 120.507812 L 148.632812 64.257812 C 149.511719 63.375 150.007812 62.183594 150.007812 60.9375 C 150.007812 59.691406 149.511719 58.5 148.632812 57.617188 Z M 75 112.5 L 75 100.378906 L 126.5625 48.816406 L 138.683594 60.9375 L 87.121094 112.5 Z M 56.25 117.1875 C 56.25 119.777344 54.152344 121.875 51.5625 121.875 L 32.8125 121.875 C 30.222656 121.875 28.125 119.777344 28.125 117.1875 C 28.125 114.597656 30.222656 112.5 32.8125 112.5 L 51.5625 112.5 C 54.152344 112.5 56.25 114.597656 56.25 117.1875 Z M 56.25 89.0625 C 56.25 91.652344 54.152344 93.75 51.5625 93.75 L 32.8125 93.75 C 30.222656 93.75 28.125 91.652344 28.125 89.0625 C 28.125 86.472656 30.222656 84.375 32.8125 84.375 L 51.5625 84.375 C 54.152344 84.375 56.25 86.472656 56.25 89.0625 Z M 79.6875 65.625 L 32.8125 65.625 C 30.222656 65.625 28.125 63.527344 28.125 60.9375 C 28.125 58.347656 30.222656 56.25 32.8125 56.25 L 79.6875 56.25 C 82.277344 56.25 84.375 58.347656 84.375 60.9375 C 84.375 63.527344 82.277344 65.625 79.6875 65.625 Z M 79.6875 65.625 "/>
</g>
</svg>
